<?xml version="1.0" encoding="utf-8"?>
<!-- Generator: Adobe Illustrator 18.1.1, SVG Export Plug-In . SVG Version: 6.00 Build 0)  -->
<svg version="1.1" id="Layer_1" xmlns="http://www.w3.org/2000/svg" xmlns:xlink="http://www.w3.org/1999/xlink" x="0px" y="0px"
	 viewBox="0 176.1 792 333" enable-background="new 0 176.1 792 333" xml:space="preserve">
<g>
	<g>
		<path fill="#FFFFFF" d="M462.2,187.2c4.2,2.2,8.6,1.1,13,2.2c9.4,2.2,11.4,6.4,6.1,14.4c-15.3,23.3-33.3,45-50.8,66.6
			C378.9,334.6,325.1,397,265.9,454.8c-1.1,0.8-1.9,1.9-3.3,3.3c4.7,1.7,8.9,0,13-0.8c51.4-7.5,103-5.6,154.3-5.3
			c45.8,0.3,91.6,3.1,137.4,6.4c33.3,2.2,66.6,5,99.7,8.1c33.6,3.1,67.2,6.9,100.5,10.5c4.7,0.6,9.4,0.8,14.2,1.4
			c1.4,0.3,3.1,0,3.1,2.2c0,1.9-0.3,2.8-2.5,3.3c-5.8,1.4-11.4,3.1-17.5,3.1c-1.9,0-3.3-0.3-3.9-2.2c-0.8-1.9,1.9-1.9,2.2-3.9
			c-9.4-0.8-18.9-1.9-28.6-2.8c-27.5-2.5-55-5-82.2-7.2c-25-2.2-50.2-3.9-75.2-5.8c-25-1.9-50-3.6-75-5c-22.5-1.1-45.2-1.9-68-2.8
			c-22.2-0.8-44.7-1.4-66.9-0.6c-33,1.4-66.1,2.2-98.5,7.2c-4.7,0.8-9.2,1.9-13.6,3.1c-3.6,1.1-6.4,3.3-9.2,6.1
			c-12.5,11.7-26.6,20-44.4,20c-3.9,0-7.5-1.4-8.6-5.3c-1.1-3.6,1.9-6.1,4.4-7.8c10.5-7.8,23-11.7,35.3-14.7
			c9.7-2.2,17.2-7.2,24.2-14.2c75-74.4,143.2-154.6,207.1-239c2.8-3.6,5.3-7.2,7.8-11.1c2.8-4.2,2.5-5.6-2.5-6.4
			c-6.9-1.1-13.9-2.2-21.1-2.5c-34.1-1.1-68,0.8-102.2,4.2c-2.2,0.3-3.6,0.3-5.3,2.8c-1.9,2.8-5.8,0.8-8.6,0.6
			c-3.3-0.3-8.6-0.3-8.9-4.2c-0.3-3.6,5-3.1,8.1-3.6c18-2.8,36.4-3.3,54.7-4.2c1.9,0,3.9,1.1,5.6-1.1
			C415,187.2,438.6,187.2,462.2,187.2z M202.1,487.5c11.1,0,26.1-8.1,28.6-15C221,476.4,210.7,478.6,202.1,487.5z"/>
		<path fill="#FFFFFF" d="M7.5,387.6c3.9-10.3,7.8-20.8,11.7-31.1c10.5-27.5,23.6-53.6,37.5-79.4c0.3-0.6,0.8-1.1,1.1-1.9
			c1.4-3.1,4.4-3.1,6.4-1.7c2.5,1.4,0.6,3.6-0.6,5.3c-13,22.2-24.7,45-35.3,68.3c-1.9,4.2-3.6,8.3-6.1,13.9c3.9-2.5,6.7-4.7,9.7-6.4
			c4.4-2.5,9.4-3.9,13.9-0.6c4.4,3.1,3.3,7.8,2.5,12.5C48,367,48,367.9,48,369c22.2,3.1,43.9,0.3,64.7-6.4c5.8-1.9,10.8-7.5,14.4-13
			c2.8-4.4,5.8-8.1,11.4-7.5c4.7,0.6,8.6,6.4,9.2,12.2c0.6,9.7-4.2,17.2-11.1,23.9c6.4,5.6,13.6,5.8,21.1,4.2c9.2-2.2,18-5,26.6-8.9
			c2.2-0.8,3.3-2.2,3.3-4.7c0-4.4,1.1-8.6,3.1-12.5c5.8-11.7,22.2-16.4,33-9.7c3.9,2.5,4.2,5.8,2.8,9.4c-2.2,5-3.3,10.3-3.1,15.8
			c0.3,4.7,2.5,7.2,7.5,7.2c11.4,0.6,21.4-3.1,30.8-8.9c1.9-1.1,2.2-2.5,2.5-4.4c1.1-7.8,4.7-14.4,9.2-20.5c1.4-1.9,3.1-3.3,5-4.2
			c1.1-0.6,2.2-0.6,3.1,0.3c1.1,0.8,0.3,1.9,0,3.1c-2.2,5-4.4,9.7-6.7,14.7c-0.6,1.4-1.1,3.1-1.7,4.4c-2.5,9.2,1.1,13,10.5,11.9
			c10.3-1.4,20.3-4.2,29.7-8.1c1.4-0.6,3.1-2.2,5.6-0.8c-9.4,7.2-20,11.9-31.1,14.7c-3.6,0.8-7.2,1.1-10.8,1.1
			c-5.3-0.3-9.4-2.5-11.1-7.5c-1.4-4.7-3.3-2.8-5.6-1.1c-8.6,6.1-18.3,9.4-28.9,9.7c-8.6,0.3-12.8-3.6-13.3-12.5
			c-0.3-5,0-10.3,1.9-15c1.1-3.1,0.3-4.2-2.8-4.7c-6.1-1.1-11.9-0.6-16.1,4.2c-4.4,5.3-7.5,11.7-4.4,18.9c0.6,1.4,1.1,3.1,1.9,4.4
			c1.4,3.1,1.7,6.1-1.9,7.2c-3.6,1.4-6.9,0.6-8.3-3.6c-0.8-2.2-0.8-4.7-1.4-7.8c-8.6,5.3-16.9,9.4-26.1,12.5
			c-11.1,3.6-21.7,4.2-30.8-5c-0.8-0.8-1.9-1.1-3.1-1.1c-11.1-0.8-13.6-3.3-15-14.4c-15.3,5-31.1,6.7-46.9,7.5
			c-4.7,0.3-9.4-0.3-14.2-0.8c-3.6-0.3-6.1,0.3-7.8,3.9c-1.9,3.9-4.7,6.7-8.1,9.4c-7.8,6.1-14.4,3.9-17.8-6.4
			c-1.4,3.6-3.1,6.7-3.9,9.7c-1.1,3.3-3.1,4.4-6.4,3.9C7.5,392,7.5,389.8,7.5,387.6z M24.4,372c4.4-2.8,9.2-4.4,14.4-3.9
			c2.2,0.3,3.1-0.8,3.3-2.5c0.3-2.2,1.1-4.2-0.6-6.4c-1.4-1.9-3.1-0.6-4.4,0c-5.8,2.8-10.5,6.4-13.6,11.9c-0.3,0.3-0.3,0.6-0.6,0.8
			C23.6,372,23.9,372,24.4,372z M132.7,370.4c4.4-4.4,6.7-9.4,7.5-15c0.6-2.5-0.3-5.6-3.1-6.1c-2.5-0.8-4.4,1.1-5.8,3.1
			C128,358.4,129.1,364.3,132.7,370.4z M39.4,372.9c-7.2-0.6-11.9,1.7-13.9,6.4c-0.6,1.9-1.1,3.6,0.6,5c1.9,1.4,3.3,0.6,5-0.6
			C34.4,380.6,36.9,377,39.4,372.9z M126.3,355.7c-3.6,3.3-6.4,6.7-7.2,10.8c-0.8,3.6,0.3,6.4,4.2,7.5c1.4,0.3,2.8,0,2.5-1.7
			C124.4,367,127.1,361.8,126.3,355.7z"/>
		<path fill="#FFFFFF" d="M622.9,353.2c-3.3,3.9-6.4,7.2-9.7,10.3c-1.7,1.7-3.6,3.1-5.8,3.6c-7.2,2.5-11.4-0.6-11.1-7.8
			c0-1.7,0.3-3.6,0.6-5.8c-12.8,7.5-25.8,12.5-39.7,15c-8.3,1.7-16.9,2.2-25.5,1.7c-9.2-0.6-13-5.6-13.9-17.5
			c-14.7,9.2-30.8,14.4-47.7,16.9c-5.8,0.8-11.7,1.1-17.2,0.3c-8.1-1.1-11.4-4.4-16.1-15.5c-2.5,2.5-5,5-7.8,7.5
			c-2.5,2.5-5.3,4.4-8.6,5.6c-6.4,1.9-10.5-1.4-10.3-7.8c0.3-6.4,2.2-12.5,6.1-17.5c1.4-1.9,3.6-3.6,6.1-1.9
			c3.1,1.9,0.8,4.2-0.3,6.1c-2.2,3.6-3.6,7.5-4.2,11.7c0,1.1-0.8,2.8,0.6,3.6c1.4,1.1,2.8,0,3.9-0.8c6.7-4.4,12.2-10.3,17.5-16.1
			c1.1-1.1,2.2-2.5,3.3-3.3c1.4-1.1,3.6-1.4,5,0c1.7,1.4,0.8,3.1-0.3,4.7c-6.4,9.7-1.7,18.6,10,18.9c15.5,0.3,30.5-3.3,45-8.6
			c10.3-3.9,16.7-9.4,20.5-20.8c9.2-28.3,22.2-55,36.6-80.8c0.3-0.6,0.8-1.1,1.1-1.9c1.4-2.8,4.2-3.1,6.7-1.9
			c2.8,1.4,0.8,3.9-0.3,5.6c-13.9,25.3-26.1,51.6-36.4,78.6c-2.5,6.4-4.4,12.5-5.3,19.2s1.9,10.3,8.9,10.8
			c22.2,1.4,42.5-4.4,61.9-15c1.7-0.8,2.8-2.2,3.6-3.9c1.1-2.2,2.2-4.2,4.4-5.6c1.7-0.8,3.1-0.8,4.4,0.3c1.9,1.4,1.1,3.1,0,4.2
			c-2.8,3.9-4.4,8.3-5,13c-0.3,1.1-0.8,2.5,0.3,3.6c1.4,1.1,2.8,0,3.9-0.6c6.9-4.4,12.5-10.5,18-16.4c0.8-1.1,1.9-2.2,3.1-3.1
			c1.7-1.1,3.9-1.7,5.6,0c1.4,1.7,0.6,3.3-0.6,4.7c-3.1,3.9-3.9,8.3-1.7,12.8c2.5,4.7,7.2,6.1,11.9,6.1c21.1,0.3,40.8-5.8,59.1-15.5
			c1.9-1.1,3.9-1.9,5.8-3.1c0.3,0,0.6,0,1.1,0c0.8,1.4-0.3,1.9-1.1,2.5c-20.3,14.2-42.5,21.9-66.9,21.4
			C630.7,369.8,626,365.7,622.9,353.2z"/>
		<path fill="#FFFFFF" d="M294.8,319c3.6,0.3,5.8,1.9,6.1,5.6c0.3,3.9-2.2,6.1-5.8,6.1c-3.3,0-5.8-1.9-6.1-5.6
			C288.7,321,291.2,319.3,294.8,319z"/>
	</g>
	<path fill="#FFFFFF" d="M735.9,249.6c-14.2,0-25.5-11.7-25.3-25.8c0.3-14.2,11.7-25.3,26.1-25.3c14.2,0,25.5,11.7,25.3,25.8
		C761.7,239.1,750.4,249.9,735.9,249.6z M725.9,242.7c5,3.1,10.5,3.9,16.4,1.9c1.1-0.3,2.8-0.3,2.5-1.9c-1.1-4.4-2.5-8.9-4.2-13.3
		c-1.4-3.6-5-3.3-8.1-3.1c-3.6,0.6-1.4,3.6-1.9,5.6c-0.3,1.4-0.3,3.1,0,4.7C731.2,240.2,729.3,242.1,725.9,242.7
		c0-11.9,0-23.9,0-36.6C711.2,215.8,711.8,234.1,725.9,242.7z M742.3,224.6c4.2,3.3,4.4,8.3,5.6,13c0.6,3.1,1.9,3.6,4.2,1.1
		c3.6-4.2,5.3-8.6,5.6-14.2c0.3-15-16.4-26.1-29.1-19.2c2.8,0,5.6,0,8.1,0c5,0.3,9.4,1.4,11.1,6.7
		C749.5,216.6,747.6,220.8,742.3,224.6z M730.4,216c1.1,1.9-2.8,6.9,3.6,6.7c5.6-0.3,9.2-2.8,9.2-6.9c0-4.2-2.8-6.1-8.1-6.7
		C729,208.5,730.6,212.7,730.4,216z"/>
</g>
</svg>
